<svg width="40" height="40" viewBox="0 0 40 40" fill="none" xmlns="http://www.w3.org/2000/svg">
  <path d="M1 20C1 9.50659 9.50659 1 20 1C30.4934 1 39 9.50659 39 20C39 30.4934 30.4934 39 20 39C9.50659 39 1 30.4934 1 20Z" fill="white" stroke="#4849A1" stroke-width="2" />
  <path d="M17.1305 15.9373H23.5727L22.0371 17.4729C21.5732 17.9368 21.5732 18.6882 22.0371 19.1521C22.5006 19.6156 23.2521 19.6163 23.7163 19.1521L27.2454 15.5896C27.7093 15.1257 27.7093 14.3743 27.2454 13.9104L23.7163 10.3479C23.2524 9.88403 22.501 9.88403 22.0371 10.3479C21.5732 10.8118 21.5732 11.5632 22.0371 12.0271L23.5727 13.5623H17.1305C14.3722 13.5623 11.9333 15.3213 11.0613 17.9375C10.8538 18.5609 11.1901 19.2326 11.8127 19.4367C11.937 19.4813 12.0636 19.4998 12.1879 19.4998C12.6855 19.4998 13.1487 19.1855 13.3145 18.6879C13.8623 17.0432 15.3975 15.9373 17.1305 15.9373Z" fill="black" />
  <path opacity="0.4" d="M29.1874 19.5622C29.0649 19.5176 28.9351 19.4991 28.7792 19.4991C28.2816 19.4991 27.8184 19.8134 27.6526 20.311C27.139 21.9557 25.6026 23.0616 23.8696 23.0616H17.4274L18.963 21.526C19.4269 21.0621 19.4269 20.3107 18.963 19.8468C18.4995 19.3833 17.7481 19.3826 17.2838 19.8468L13.7547 23.4093C13.2909 23.8732 13.2909 24.6246 13.7547 25.0885L17.2838 28.651C17.7477 29.1149 18.4992 29.1149 18.963 28.651C19.4269 28.1871 19.4269 27.4357 18.963 26.9718L17.4274 25.4366H23.8696C26.628 25.4366 29.0649 23.6783 29.937 21.0614C30.1448 20.438 29.8108 19.7663 29.1874 19.5622Z" fill="black" />
</svg>
